<?xml version="1.0" encoding="utf-8"?>
<!-- Generator: Adobe Illustrator 15.1.0, SVG Export Plug-In . SVG Version: 6.00 Build 0)  -->
<!DOCTYPE svg PUBLIC "-//W3C//DTD SVG 1.1//EN" "http://www.w3.org/Graphics/SVG/1.1/DTD/svg11.dtd">
<svg version="1.1" id="Layer_1" xmlns="http://www.w3.org/2000/svg" xmlns:xlink="http://www.w3.org/1999/xlink" x="0px" y="0px"
	 width="324px" height="936px" viewBox="0 0 324 936" enable-background="new 0 0 324 936" xml:space="preserve">
<rect x="81" y="504" fill="#808285" width="9" height="9"/>
<rect x="126" y="387" fill="#6696CF" width="9" height="9"/>
<rect x="81" y="495" fill="#808285" width="9" height="9"/>
<rect x="81" y="486" fill="#808285" width="9" height="9"/>
<rect x="81" y="477" fill="#808285" width="9" height="9"/>
<rect x="81" y="468" fill="#808285" width="9" height="9"/>
<rect x="81" y="459" fill="#808285" width="9" height="9"/>
<rect x="72" y="459" fill="#808285" width="9" height="9"/>
<rect x="72" y="468" fill="#808285" width="9" height="9"/>
<rect x="72" y="477" fill="#808285" width="9" height="9"/>
<rect x="72" y="486" fill="#808285" width="9" height="9"/>
<rect x="81" y="450" fill="#808285" width="9" height="9"/>
<rect x="81" y="441" fill="#808285" width="9" height="9"/>
<rect x="81" y="432" fill="#808285" width="9" height="9"/>
<rect x="90" y="432" fill="#808285" width="9" height="9"/>
<rect x="99" y="432" fill="#808285" width="9" height="9"/>
<rect x="99" y="441" fill="#808285" width="9" height="9"/>
<rect x="90" y="441" fill="#808285" width="9" height="9"/>
<rect x="90" y="450" fill="#808285" width="9" height="9"/>
<rect x="99" y="450" fill="#808285" width="9" height="9"/>
<rect x="99" y="459" fill="#808285" width="9" height="9"/>
<rect x="90" y="459" fill="#808285" width="9" height="9"/>
<rect x="108" y="495" fill="#808285" width="9" height="9"/>
<rect x="108" y="486" fill="#808285" width="9" height="9"/>
<rect x="99" y="486" fill="#808285" width="9" height="9"/>
<rect x="90" y="486" fill="#808285" width="9" height="9"/>
<rect x="90" y="504" fill="#808285" width="9" height="9"/>
<rect x="90" y="495" fill="#808285" width="9" height="9"/>
<rect x="99" y="495" fill="#808285" width="9" height="9"/>
<rect x="99" y="504" fill="#808285" width="9" height="9"/>
<rect x="108" y="504" fill="#808285" width="9" height="9"/>
<rect x="117" y="504" fill="#808285" width="9" height="9"/>
<rect x="117" y="495" fill="#808285" width="9" height="9"/>
<rect x="90" y="468" fill="#808285" width="9" height="9"/>
<rect x="99" y="468" fill="#808285" width="9" height="9"/>
<rect x="108" y="432" fill="#808285" width="9" height="9"/>
<rect x="108" y="441" fill="#808285" width="9" height="9"/>
<rect x="108" y="450" fill="#808285" width="9" height="9"/>
<rect x="108" y="459" fill="#808285" width="9" height="9"/>
<rect x="108" y="468" fill="#808285" width="9" height="9"/>
<rect x="108" y="477" fill="#808285" width="9" height="9"/>
<rect x="99" y="477" fill="#808285" width="9" height="9"/>
<rect x="90" y="477" fill="#808285" width="9" height="9"/>
<rect x="90" y="540" fill="#808285" width="9" height="9"/>
<rect x="90" y="531" fill="#808285" width="9" height="9"/>
<rect x="90" y="522" fill="#808285" width="9" height="9"/>
<rect x="90" y="513" fill="#808285" width="9" height="9"/>
<rect x="81" y="513" fill="#808285" width="9" height="9"/>
<rect x="81" y="522" fill="#808285" width="9" height="9"/>
<rect x="117" y="531" fill="#808285" width="9" height="9"/>
<rect x="117" y="522" fill="#808285" width="9" height="9"/>
<rect x="108" y="522" fill="#808285" width="9" height="9"/>
<rect x="99" y="522" fill="#808285" width="9" height="9"/>
<rect x="99" y="540" fill="#808285" width="9" height="9"/>
<rect x="99" y="531" fill="#808285" width="9" height="9"/>
<rect x="108" y="531" fill="#808285" width="9" height="9"/>
<rect x="108" y="540" fill="#808285" width="9" height="9"/>
<rect x="117" y="540" fill="#808285" width="9" height="9"/>
<rect x="90" y="558" fill="#808285" width="9" height="9"/>
<rect x="81" y="558" fill="#808285" width="9" height="9"/>
<rect x="72" y="558" fill="#6696CF" width="9" height="9"/>
<rect x="63" y="558" fill="#6696CF" width="9" height="9"/>
<rect x="144" y="558" fill="#6696CF" width="9" height="9"/>
<rect x="90" y="549" fill="#808285" width="9" height="9"/>
<rect x="81" y="540" fill="#808285" width="9" height="9"/>
<rect x="81" y="531" fill="#808285" width="9" height="9"/>
<rect x="72" y="504" fill="#808285" width="9" height="9"/>
<rect x="72" y="495" fill="#808285" width="9" height="9"/>
<rect x="72" y="513" fill="#808285" width="9" height="9"/>
<rect x="72" y="522" fill="#808285" width="9" height="9"/>
<rect x="63" y="486" fill="#808285" width="9" height="9"/>
<rect x="63" y="504" fill="#808285" width="9" height="9"/>
<rect x="63" y="495" fill="#808285" width="9" height="9"/>
<rect x="63" y="513" fill="#808285" width="9" height="9"/>
<rect x="63" y="522" fill="#808285" width="9" height="9"/>
<rect x="72" y="540" fill="#808285" width="9" height="9"/>
<rect x="72" y="531" fill="#808285" width="9" height="9"/>
<rect x="81" y="549" fill="#808285" width="9" height="9"/>
<rect x="72" y="549" fill="#808285" width="9" height="9"/>
<rect x="117" y="549" fill="#808285" width="9" height="9"/>
<rect x="99" y="558" fill="#808285" width="9" height="9"/>
<rect x="99" y="549" fill="#808285" width="9" height="9"/>
<rect x="108" y="549" fill="#808285" width="9" height="9"/>
<rect x="108" y="558" fill="#808285" width="9" height="9"/>
<rect x="117" y="558" fill="#808285" width="9" height="9"/>
<rect x="126" y="558" fill="#6696CF" width="9" height="9"/>
<rect x="135" y="558" fill="#6696CF" width="9" height="9"/>
<rect x="108" y="567" fill="#6696CF" width="9" height="9"/>
<rect x="117" y="567" fill="#6696CF" width="9" height="9"/>
<rect x="99" y="567" fill="#6696CF" width="9" height="9"/>
<rect x="81" y="567" fill="#6696CF" width="9" height="9"/>
<rect x="90" y="567" fill="#6696CF" width="9" height="9"/>
<rect x="117" y="513" fill="#808285" width="9" height="9"/>
<rect x="126" y="531" fill="#808285" width="9" height="9"/>
<rect x="126" y="522" fill="#808285" width="9" height="9"/>
<rect x="126" y="540" fill="#808285" width="9" height="9"/>
<rect x="126" y="549" fill="#808285" width="9" height="9"/>
<rect x="135" y="540" fill="#808285" width="9" height="9"/>
<rect x="135" y="549" fill="#808285" width="9" height="9"/>
<rect x="126" y="513" fill="#808285" width="9" height="9"/>
<rect x="108" y="513" fill="#808285" width="9" height="9"/>
<rect x="99" y="513" fill="#808285" width="9" height="9"/>
<rect x="99" y="423" fill="#808285" width="9" height="9"/>
<rect x="99" y="414" fill="#808285" width="9" height="9"/>
<rect x="99" y="405" fill="#808285" width="9" height="9"/>
<rect x="99" y="396" fill="#808285" width="9" height="9"/>
<rect x="90" y="396" fill="#808285" width="9" height="9"/>
<rect x="90" y="405" fill="#808285" width="9" height="9"/>
<rect x="126" y="414" fill="#808285" width="9" height="9"/>
<rect x="126" y="405" fill="#808285" width="9" height="9"/>
<rect x="117" y="405" fill="#808285" width="9" height="9"/>
<rect x="108" y="405" fill="#808285" width="9" height="9"/>
<rect x="108" y="423" fill="#808285" width="9" height="9"/>
<rect x="108" y="414" fill="#808285" width="9" height="9"/>
<rect x="81" y="423" fill="#808285" width="9" height="9"/>
<rect x="81" y="414" fill="#808285" width="9" height="9"/>
<rect x="90" y="423" fill="#808285" width="9" height="9"/>
<rect x="90" y="414" fill="#808285" width="9" height="9"/>
<rect x="117" y="414" fill="#808285" width="9" height="9"/>
<rect x="117" y="423" fill="#808285" width="9" height="9"/>
<rect x="126" y="423" fill="#808285" width="9" height="9"/>
<rect x="126" y="396" fill="#808285" width="9" height="9"/>
<rect x="117" y="396" fill="#808285" width="9" height="9"/>
<rect x="108" y="396" fill="#808285" width="9" height="9"/>
<rect x="99" y="387" fill="#808285" width="9" height="9"/>
<rect x="99" y="378" fill="#808285" width="9" height="9"/>
<rect x="99" y="369" fill="#808285" width="9" height="9"/>
<rect x="99" y="360" fill="#808285" width="9" height="9"/>
<rect x="90" y="369" fill="#808285" width="9" height="9"/>
<rect x="126" y="378" fill="#EEDD32" width="9" height="9"/>
<rect x="135" y="378" fill="#EEDD32" width="9" height="9"/>
<rect x="135" y="387" fill="#EEDD32" width="9" height="9"/>
<rect x="126" y="369" fill="#808285" width="9" height="9"/>
<rect x="117" y="369" fill="#808285" width="9" height="9"/>
<rect x="108" y="369" fill="#808285" width="9" height="9"/>
<rect x="108" y="387" fill="#808285" width="9" height="9"/>
<rect x="108" y="378" fill="#808285" width="9" height="9"/>
<rect x="90" y="387" fill="#808285" width="9" height="9"/>
<rect x="90" y="378" fill="#808285" width="9" height="9"/>
<rect x="117" y="378" fill="#808285" width="9" height="9"/>
<rect x="117" y="387" fill="#808285" width="9" height="9"/>
<rect x="144" y="414" fill="#808285" width="9" height="9"/>
<rect x="135" y="414" fill="#808285" width="9" height="9"/>
<rect x="135" y="423" fill="#808285" width="9" height="9"/>
<rect x="144" y="405" fill="#808285" width="9" height="9"/>
<rect x="144" y="396" fill="#808285" width="9" height="9"/>
<rect x="135" y="396" fill="#808285" width="9" height="9"/>
<rect x="135" y="405" fill="#808285" width="9" height="9"/>
<rect x="171" y="414" fill="#808285" width="9" height="9"/>
<rect x="171" y="405" fill="#808285" width="9" height="9"/>
<rect x="180" y="414" fill="#808285" width="9" height="9"/>
<rect x="180" y="405" fill="#808285" width="9" height="9"/>
<rect x="162" y="405" fill="#808285" width="9" height="9"/>
<rect x="153" y="405" fill="#808285" width="9" height="9"/>
<rect x="153" y="414" fill="#808285" width="9" height="9"/>
<rect x="162" y="414" fill="#808285" width="9" height="9"/>
<rect x="171" y="396" fill="#808285" width="9" height="9"/>
<rect x="162" y="396" fill="#808285" width="9" height="9"/>
<rect x="153" y="396" fill="#808285" width="9" height="9"/>
<rect x="144" y="387" fill="#808285" width="9" height="9"/>
<rect x="153" y="387" fill="#808285" width="9" height="9"/>
<rect x="144" y="378" fill="#808285" width="9" height="9"/>
<rect x="153" y="378" fill="#808285" width="9" height="9"/>
<rect x="144" y="369" fill="#808285" width="9" height="9"/>
<rect x="135" y="369" fill="#808285" width="9" height="9"/>
<rect x="126" y="360" fill="#808285" width="9" height="9"/>
<rect x="117" y="360" fill="#808285" width="9" height="9"/>
<rect x="108" y="360" fill="#808285" width="9" height="9"/>
<rect x="180" y="513" fill="#58595B" width="9" height="9"/>
<rect x="180" y="504" fill="#58595B" width="9" height="9"/>
<rect x="180" y="495" fill="#58595B" width="9" height="9"/>
<rect x="180" y="486" fill="#58595B" width="9" height="9"/>
<rect x="171" y="486" fill="#58595B" width="9" height="9"/>
<rect x="171" y="495" fill="#58595B" width="9" height="9"/>
<rect x="171" y="504" fill="#58595B" width="9" height="9"/>
<rect x="171" y="513" fill="#58595B" width="9" height="9"/>
<rect x="207" y="504" fill="#58595B" width="9" height="9"/>
<rect x="207" y="495" fill="#58595B" width="9" height="9"/>
<rect x="198" y="495" fill="#58595B" width="9" height="9"/>
<rect x="189" y="495" fill="#58595B" width="9" height="9"/>
<rect x="189" y="513" fill="#58595B" width="9" height="9"/>
<rect x="189" y="504" fill="#58595B" width="9" height="9"/>
<rect x="198" y="504" fill="#58595B" width="9" height="9"/>
<rect x="198" y="513" fill="#58595B" width="9" height="9"/>
<rect x="180" y="522" fill="#58595B" width="9" height="9"/>
<rect x="189" y="522" fill="#58595B" width="9" height="9"/>
<rect x="198" y="522" fill="#58595B" width="9" height="9"/>
<rect x="207" y="522" fill="#6696CF" width="9" height="9"/>
<rect x="216" y="522" fill="#6696CF" width="9" height="9"/>
<rect x="234" y="504" fill="#6696CF" width="9" height="9"/>
<rect x="270" y="504" fill="#6696CF" width="9" height="9"/>
<rect x="243" y="504" fill="#6696CF" width="9" height="9"/>
<rect x="252" y="504" fill="#6696CF" width="9" height="9"/>
<rect x="261" y="504" fill="#6696CF" width="9" height="9"/>
<rect x="180" y="531" fill="#6696CF" width="9" height="9"/>
<rect x="189" y="531" fill="#6696CF" width="9" height="9"/>
<rect x="198" y="531" fill="#6696CF" width="9" height="9"/>
<rect x="252" y="414" fill="#6696CF" width="9" height="9"/>
<rect x="225" y="414" fill="#6696CF" width="9" height="9"/>
<rect x="234" y="414" fill="#6696CF" width="9" height="9"/>
<rect x="243" y="414" fill="#6696CF" width="9" height="9"/>
<rect x="243" y="414" fill="#6696CF" width="9" height="9"/>
<rect x="216" y="414" fill="#6696CF" width="9" height="9"/>
<rect x="225" y="414" fill="#6696CF" width="9" height="9"/>
<rect x="234" y="414" fill="#6696CF" width="9" height="9"/>
<rect x="162" y="522" fill="#6696CF" width="9" height="9"/>
<rect x="171" y="522" fill="#6696CF" width="9" height="9"/>
<rect x="207" y="513" fill="#58595B" width="9" height="9"/>
<rect x="207" y="486" fill="#58595B" width="9" height="9"/>
<rect x="198" y="486" fill="#58595B" width="9" height="9"/>
<rect x="189" y="486" fill="#58595B" width="9" height="9"/>
<rect x="207" y="477" fill="#58595B" width="9" height="9"/>
<rect x="207" y="468" fill="#58595B" width="9" height="9"/>
<rect x="207" y="459" fill="#58595B" width="9" height="9"/>
<rect x="207" y="450" fill="#58595B" width="9" height="9"/>
<rect x="198" y="450" fill="#58595B" width="9" height="9"/>
<rect x="198" y="459" fill="#58595B" width="9" height="9"/>
<rect x="189" y="459" fill="#58595B" width="9" height="9"/>
<rect x="234" y="468" fill="#58595B" width="9" height="9"/>
<rect x="234" y="459" fill="#58595B" width="9" height="9"/>
<rect x="225" y="459" fill="#58595B" width="9" height="9"/>
<rect x="216" y="459" fill="#58595B" width="9" height="9"/>
<rect x="216" y="477" fill="#58595B" width="9" height="9"/>
<rect x="216" y="468" fill="#58595B" width="9" height="9"/>
<rect x="225" y="468" fill="#58595B" width="9" height="9"/>
<rect x="225" y="477" fill="#58595B" width="9" height="9"/>
<rect x="234" y="477" fill="#58595B" width="9" height="9"/>
<rect x="261" y="468" fill="#58595B" width="9" height="9"/>
<rect x="252" y="459" fill="#58595B" width="9" height="9"/>
<rect x="243" y="459" fill="#58595B" width="9" height="9"/>
<rect x="234" y="441" fill="#58595B" width="9" height="9"/>
<rect x="243" y="450" fill="#58595B" width="9" height="9"/>
<rect x="225" y="441" fill="#58595B" width="9" height="9"/>
<rect x="216" y="441" fill="#58595B" width="9" height="9"/>
<rect x="243" y="477" fill="#58595B" width="9" height="9"/>
<rect x="243" y="468" fill="#58595B" width="9" height="9"/>
<rect x="252" y="468" fill="#58595B" width="9" height="9"/>
<rect x="252" y="477" fill="#58595B" width="9" height="9"/>
<rect x="261" y="477" fill="#58595B" width="9" height="9"/>
<rect x="261" y="486" fill="#58595B" width="9" height="9"/>
<rect x="243" y="495" fill="#58595B" width="9" height="9"/>
<rect x="243" y="486" fill="#58595B" width="9" height="9"/>
<rect x="252" y="486" fill="#58595B" width="9" height="9"/>
<rect x="252" y="495" fill="#58595B" width="9" height="9"/>
<rect x="261" y="495" fill="#58595B" width="9" height="9"/>
<rect x="234" y="387" fill="#515151" width="9" height="9"/>
<rect x="225" y="378" fill="#515151" width="9" height="9"/>
<rect x="225" y="387" fill="#515151" width="9" height="9"/>
<rect x="216" y="378" fill="#515151" width="9" height="9"/>
<rect x="216" y="387" fill="#515151" width="9" height="9"/>
<rect x="207" y="387" fill="#515151" width="9" height="9"/>
<rect x="243" y="396" fill="#515151" width="9" height="9"/>
<rect x="234" y="396" fill="#515151" width="9" height="9"/>
<rect x="225" y="396" fill="#515151" width="9" height="9"/>
<rect x="234" y="405" fill="#515151" width="9" height="9"/>
<rect x="225" y="405" fill="#515151" width="9" height="9"/>
<rect x="243" y="405" fill="#515151" width="9" height="9"/>
<rect x="198" y="468" fill="#58595B" width="9" height="9"/>
<rect x="180" y="477" fill="#58595B" width="9" height="9"/>
<rect x="180" y="468" fill="#58595B" width="9" height="9"/>
<rect x="189" y="468" fill="#58595B" width="9" height="9"/>
<rect x="189" y="477" fill="#58595B" width="9" height="9"/>
<rect x="198" y="477" fill="#58595B" width="9" height="9"/>
<rect x="234" y="450" fill="#58595B" width="9" height="9"/>
<rect x="225" y="450" fill="#58595B" width="9" height="9"/>
<rect x="216" y="450" fill="#58595B" width="9" height="9"/>
<rect x="81" y="801" width="9" height="9"/>
<rect x="126" y="684" fill="#6696CF" width="9" height="9"/>
<rect x="81" y="792" width="9" height="9"/>
<rect x="81" y="783" width="9" height="9"/>
<rect x="81" y="774" width="9" height="9"/>
<rect x="81" y="765" width="9" height="9"/>
<rect x="81" y="756" width="9" height="9"/>
<rect x="72" y="756" width="9" height="9"/>
<rect x="72" y="765" width="9" height="9"/>
<rect x="72" y="774" width="9" height="9"/>
<rect x="72" y="783" width="9" height="9"/>
<rect x="81" y="747" width="9" height="9"/>
<rect x="81" y="738" width="9" height="9"/>
<rect x="81" y="729" width="9" height="9"/>
<rect x="90" y="729" width="9" height="9"/>
<rect x="99" y="729" width="9" height="9"/>
<rect x="99" y="738" width="9" height="9"/>
<rect x="90" y="738" width="9" height="9"/>
<rect x="90" y="747" width="9" height="9"/>
<rect x="99" y="747" width="9" height="9"/>
<rect x="99" y="756" width="9" height="9"/>
<rect x="90" y="756" width="9" height="9"/>
<rect x="108" y="792" width="9" height="9"/>
<rect x="108" y="783" width="9" height="9"/>
<rect x="99" y="783" width="9" height="9"/>
<rect x="90" y="783" width="9" height="9"/>
<rect x="90" y="801" width="9" height="9"/>
<rect x="90" y="792" width="9" height="9"/>
<rect x="99" y="792" width="9" height="9"/>
<rect x="99" y="801" width="9" height="9"/>
<rect x="108" y="801" width="9" height="9"/>
<rect x="117" y="801" width="9" height="9"/>
<rect x="117" y="792" width="9" height="9"/>
<rect x="90" y="765" width="9" height="9"/>
<rect x="99" y="765" width="9" height="9"/>
<rect x="108" y="729" width="9" height="9"/>
<rect x="108" y="738" width="9" height="9"/>
<rect x="108" y="747" width="9" height="9"/>
<rect x="108" y="756" width="9" height="9"/>
<rect x="108" y="765" width="9" height="9"/>
<rect x="108" y="774" width="9" height="9"/>
<rect x="99" y="774" width="9" height="9"/>
<rect x="90" y="774" width="9" height="9"/>
<rect x="90" y="837" width="9" height="9"/>
<rect x="90" y="828" width="9" height="9"/>
<rect x="90" y="819" width="9" height="9"/>
<rect x="90" y="810" width="9" height="9"/>
<rect x="81" y="810" width="9" height="9"/>
<rect x="81" y="819" width="9" height="9"/>
<rect x="117" y="828" width="9" height="9"/>
<rect x="117" y="819" width="9" height="9"/>
<rect x="108" y="819" width="9" height="9"/>
<rect x="99" y="819" width="9" height="9"/>
<rect x="99" y="837" width="9" height="9"/>
<rect x="99" y="828" width="9" height="9"/>
<rect x="108" y="828" width="9" height="9"/>
<rect x="108" y="837" width="9" height="9"/>
<rect x="117" y="837" width="9" height="9"/>
<rect x="90" y="855" width="9" height="9"/>
<rect x="81" y="855" width="9" height="9"/>
<rect x="72" y="855" fill="#6696CF" width="9" height="9"/>
<rect x="63" y="855" fill="#6696CF" width="9" height="9"/>
<rect x="144" y="855" fill="#6696CF" width="9" height="9"/>
<rect x="90" y="846" width="9" height="9"/>
<rect x="81" y="837" width="9" height="9"/>
<rect x="81" y="828" width="9" height="9"/>
<rect x="72" y="801" width="9" height="9"/>
<rect x="72" y="792" width="9" height="9"/>
<rect x="72" y="810" width="9" height="9"/>
<rect x="72" y="819" width="9" height="9"/>
<rect x="63" y="783" width="9" height="9"/>
<rect x="63" y="801" width="9" height="9"/>
<rect x="63" y="792" width="9" height="9"/>
<rect x="63" y="810" width="9" height="9"/>
<rect x="63" y="819" width="9" height="9"/>
<rect x="72" y="837" width="9" height="9"/>
<rect x="72" y="828" width="9" height="9"/>
<rect x="81" y="846" width="9" height="9"/>
<rect x="72" y="846" width="9" height="9"/>
<rect x="117" y="846" width="9" height="9"/>
<rect x="99" y="855" width="9" height="9"/>
<rect x="99" y="846" width="9" height="9"/>
<rect x="108" y="846" width="9" height="9"/>
<rect x="108" y="855" width="9" height="9"/>
<rect x="117" y="855" width="9" height="9"/>
<rect x="126" y="855" fill="#6696CF" width="9" height="9"/>
<rect x="135" y="855" fill="#6696CF" width="9" height="9"/>
<rect x="108" y="864" fill="#6696CF" width="9" height="9"/>
<rect x="117" y="864" fill="#6696CF" width="9" height="9"/>
<rect x="99" y="864" fill="#6696CF" width="9" height="9"/>
<rect x="81" y="864" fill="#6696CF" width="9" height="9"/>
<rect x="90" y="864" fill="#6696CF" width="9" height="9"/>
<rect x="117" y="810" width="9" height="9"/>
<rect x="126" y="828" width="9" height="9"/>
<rect x="126" y="819" width="9" height="9"/>
<rect x="126" y="837" width="9" height="9"/>
<rect x="126" y="846" width="9" height="9"/>
<rect x="135" y="837" width="9" height="9"/>
<rect x="135" y="846" width="9" height="9"/>
<rect x="126" y="810" width="9" height="9"/>
<rect x="108" y="810" width="9" height="9"/>
<rect x="99" y="810" width="9" height="9"/>
<rect x="99" y="720" width="9" height="9"/>
<rect x="99" y="711" width="9" height="9"/>
<rect x="99" y="702" width="9" height="9"/>
<rect x="99" y="693" width="9" height="9"/>
<rect x="90" y="693" width="9" height="9"/>
<rect x="90" y="702" width="9" height="9"/>
<rect x="126" y="711" width="9" height="9"/>
<rect x="126" y="702" width="9" height="9"/>
<rect x="117" y="702" width="9" height="9"/>
<rect x="108" y="702" width="9" height="9"/>
<rect x="108" y="720" width="9" height="9"/>
<rect x="108" y="711" width="9" height="9"/>
<rect x="81" y="720" width="9" height="9"/>
<rect x="81" y="711" width="9" height="9"/>
<rect x="90" y="720" width="9" height="9"/>
<rect x="90" y="711" width="9" height="9"/>
<rect x="117" y="711" width="9" height="9"/>
<rect x="117" y="720" width="9" height="9"/>
<rect x="126" y="720" width="9" height="9"/>
<rect x="126" y="693" width="9" height="9"/>
<rect x="117" y="693" width="9" height="9"/>
<rect x="108" y="693" width="9" height="9"/>
<rect x="99" y="684" width="9" height="9"/>
<rect x="99" y="675" width="9" height="9"/>
<rect x="99" y="666" width="9" height="9"/>
<rect x="99" y="657" width="9" height="9"/>
<rect x="90" y="666" width="9" height="9"/>
<rect x="126" y="675" fill="#EEDD32" width="9" height="9"/>
<rect x="135" y="675" fill="#EEDD32" width="9" height="9"/>
<rect x="135" y="684" fill="#EEDD32" width="9" height="9"/>
<rect x="126" y="666" width="9" height="9"/>
<rect x="117" y="666" width="9" height="9"/>
<rect x="108" y="666" width="9" height="9"/>
<rect x="108" y="684" width="9" height="9"/>
<rect x="108" y="675" width="9" height="9"/>
<rect x="90" y="684" width="9" height="9"/>
<rect x="90" y="675" width="9" height="9"/>
<rect x="117" y="675" width="9" height="9"/>
<rect x="117" y="684" width="9" height="9"/>
<rect x="144" y="711" width="9" height="9"/>
<rect x="135" y="711" width="9" height="9"/>
<rect x="135" y="720" width="9" height="9"/>
<rect x="144" y="702" width="9" height="9"/>
<rect x="144" y="693" width="9" height="9"/>
<rect x="135" y="693" width="9" height="9"/>
<rect x="135" y="702" width="9" height="9"/>
<rect x="171" y="711" width="9" height="9"/>
<rect x="171" y="702" width="9" height="9"/>
<rect x="180" y="711" width="9" height="9"/>
<rect x="180" y="702" width="9" height="9"/>
<rect x="162" y="702" width="9" height="9"/>
<rect x="153" y="702" width="9" height="9"/>
<rect x="153" y="711" width="9" height="9"/>
<rect x="162" y="711" width="9" height="9"/>
<rect x="171" y="693" width="9" height="9"/>
<rect x="162" y="693" width="9" height="9"/>
<rect x="153" y="693" width="9" height="9"/>
<rect x="144" y="684" width="9" height="9"/>
<rect x="153" y="684" width="9" height="9"/>
<rect x="144" y="675" width="9" height="9"/>
<rect x="153" y="675" width="9" height="9"/>
<rect x="144" y="666" width="9" height="9"/>
<rect x="135" y="666" width="9" height="9"/>
<rect x="126" y="657" width="9" height="9"/>
<rect x="117" y="657" width="9" height="9"/>
<rect x="108" y="657" width="9" height="9"/>
<rect x="180" y="810" width="9" height="9"/>
<rect x="180" y="801" width="9" height="9"/>
<rect x="180" y="792" width="9" height="9"/>
<rect x="180" y="783" width="9" height="9"/>
<rect x="171" y="783" width="9" height="9"/>
<rect x="171" y="792" width="9" height="9"/>
<rect x="171" y="801" width="9" height="9"/>
<rect x="171" y="810" width="9" height="9"/>
<rect x="207" y="801" width="9" height="9"/>
<rect x="207" y="792" width="9" height="9"/>
<rect x="198" y="792" width="9" height="9"/>
<rect x="189" y="792" width="9" height="9"/>
<rect x="189" y="810" width="9" height="9"/>
<rect x="189" y="801" width="9" height="9"/>
<rect x="198" y="801" width="9" height="9"/>
<rect x="198" y="810" width="9" height="9"/>
<rect x="180" y="819" width="9" height="9"/>
<rect x="189" y="819" width="9" height="9"/>
<rect x="198" y="819" width="9" height="9"/>
<rect x="207" y="819" fill="#6696CF" width="9" height="9"/>
<rect x="216" y="819" fill="#6696CF" width="9" height="9"/>
<rect x="234" y="801" fill="#6696CF" width="9" height="9"/>
<rect x="270" y="801" fill="#6696CF" width="9" height="9"/>
<rect x="243" y="801" fill="#6696CF" width="9" height="9"/>
<rect x="252" y="801" fill="#6696CF" width="9" height="9"/>
<rect x="261" y="801" fill="#6696CF" width="9" height="9"/>
<rect x="180" y="828" fill="#6696CF" width="9" height="9"/>
<rect x="189" y="828" fill="#6696CF" width="9" height="9"/>
<rect x="198" y="828" fill="#6696CF" width="9" height="9"/>
<rect x="252" y="711" fill="#6696CF" width="9" height="9"/>
<rect x="225" y="711" fill="#6696CF" width="9" height="9"/>
<rect x="234" y="711" fill="#6696CF" width="9" height="9"/>
<rect x="243" y="711" fill="#6696CF" width="9" height="9"/>
<rect x="243" y="711" fill="#6696CF" width="9" height="9"/>
<rect x="216" y="711" fill="#6696CF" width="9" height="9"/>
<rect x="225" y="711" fill="#6696CF" width="9" height="9"/>
<rect x="234" y="711" fill="#6696CF" width="9" height="9"/>
<rect x="162" y="819" fill="#6696CF" width="9" height="9"/>
<rect x="171" y="819" fill="#6696CF" width="9" height="9"/>
<rect x="207" y="810" width="9" height="9"/>
<rect x="207" y="783" width="9" height="9"/>
<rect x="198" y="783" width="9" height="9"/>
<rect x="189" y="783" width="9" height="9"/>
<rect x="207" y="774" width="9" height="9"/>
<rect x="207" y="765" width="9" height="9"/>
<rect x="207" y="756" width="9" height="9"/>
<rect x="207" y="747" width="9" height="9"/>
<rect x="198" y="747" width="9" height="9"/>
<rect x="198" y="756" width="9" height="9"/>
<rect x="189" y="756" width="9" height="9"/>
<rect x="234" y="765" width="9" height="9"/>
<rect x="234" y="756" width="9" height="9"/>
<rect x="225" y="756" width="9" height="9"/>
<rect x="216" y="756" width="9" height="9"/>
<rect x="216" y="774" width="9" height="9"/>
<rect x="216" y="765" width="9" height="9"/>
<rect x="225" y="765" width="9" height="9"/>
<rect x="225" y="774" width="9" height="9"/>
<rect x="234" y="774" width="9" height="9"/>
<rect x="261" y="765" width="9" height="9"/>
<rect x="252" y="756" width="9" height="9"/>
<rect x="243" y="756" width="9" height="9"/>
<rect x="234" y="738" width="9" height="9"/>
<rect x="243" y="747" width="9" height="9"/>
<rect x="225" y="738" width="9" height="9"/>
<rect x="216" y="738" width="9" height="9"/>
<rect x="243" y="774" width="9" height="9"/>
<rect x="243" y="765" width="9" height="9"/>
<rect x="252" y="765" width="9" height="9"/>
<rect x="252" y="774" width="9" height="9"/>
<rect x="261" y="774" width="9" height="9"/>
<rect x="261" y="783" width="9" height="9"/>
<rect x="243" y="792" width="9" height="9"/>
<rect x="243" y="783" width="9" height="9"/>
<rect x="252" y="783" width="9" height="9"/>
<rect x="252" y="792" width="9" height="9"/>
<rect x="261" y="792" width="9" height="9"/>
<rect x="234" y="684" width="9" height="9"/>
<rect x="225" y="675" width="9" height="9"/>
<rect x="225" y="684" width="9" height="9"/>
<rect x="216" y="675" width="9" height="9"/>
<rect x="216" y="684" width="9" height="9"/>
<rect x="207" y="684" width="9" height="9"/>
<rect x="243" y="693" width="9" height="9"/>
<rect x="234" y="693" width="9" height="9"/>
<rect x="225" y="693" width="9" height="9"/>
<rect x="234" y="702" width="9" height="9"/>
<rect x="225" y="702" width="9" height="9"/>
<rect x="243" y="702" width="9" height="9"/>
<rect x="198" y="765" width="9" height="9"/>
<rect x="180" y="774" width="9" height="9"/>
<rect x="180" y="765" width="9" height="9"/>
<rect x="189" y="765" width="9" height="9"/>
<rect x="189" y="774" width="9" height="9"/>
<rect x="198" y="774" width="9" height="9"/>
<rect x="234" y="747" width="9" height="9"/>
<rect x="225" y="747" width="9" height="9"/>
<rect x="216" y="747" width="9" height="9"/>
<g>
	<rect x="90" y="189" fill="#5AB267" width="9" height="9"/>
	<rect x="135" y="72" fill="#6696CF" width="9" height="9"/>
	<rect x="90" y="180" fill="#5AB267" width="9" height="9"/>
	<rect x="90" y="171" fill="#5AB267" width="9" height="9"/>
	<rect x="90" y="162" fill="#5AB267" width="9" height="9"/>
	<rect x="90" y="153" fill="#5AB267" width="9" height="9"/>
	<rect x="90" y="144" fill="#5AB267" width="9" height="9"/>
	<rect x="81" y="144" fill="#5AB267" width="9" height="9"/>
	<rect x="81" y="153" fill="#5AB267" width="9" height="9"/>
	<rect x="81" y="162" fill="#5AB267" width="9" height="9"/>
	<rect x="81" y="171" fill="#5AB267" width="9" height="9"/>
	<rect x="90" y="135" fill="#5AB267" width="9" height="9"/>
	<rect x="90" y="126" fill="#5AB267" width="9" height="9"/>
	<rect x="90" y="117" fill="#5AB267" width="9" height="9"/>
	<rect x="99" y="117" fill="#5AB267" width="9" height="9"/>
	<rect x="108" y="117" fill="#5AB267" width="9" height="9"/>
	<rect x="108" y="126" fill="#5AB267" width="9" height="9"/>
	<rect x="99" y="126" fill="#5AB267" width="9" height="9"/>
	<rect x="99" y="135" fill="#5AB267" width="9" height="9"/>
	<rect x="108" y="135" fill="#5AB267" width="9" height="9"/>
	<rect x="108" y="144" fill="#5AB267" width="9" height="9"/>
	<rect x="99" y="144" fill="#5AB267" width="9" height="9"/>
	<rect x="117" y="180" fill="#5AB267" width="9" height="9"/>
	<rect x="117" y="171" fill="#5AB267" width="9" height="9"/>
	<rect x="108" y="171" fill="#5AB267" width="9" height="9"/>
	<rect x="99" y="171" fill="#5AB267" width="9" height="9"/>
	<rect x="99" y="189" fill="#5AB267" width="9" height="9"/>
	<rect x="99" y="180" fill="#5AB267" width="9" height="9"/>
	<rect x="108" y="180" fill="#5AB267" width="9" height="9"/>
	<rect x="108" y="189" fill="#5AB267" width="9" height="9"/>
	<rect x="117" y="189" fill="#5AB267" width="9" height="9"/>
	<rect x="126" y="189" fill="#5AB267" width="9" height="9"/>
	<rect x="126" y="180" fill="#5AB267" width="9" height="9"/>
	<rect x="99" y="153" fill="#5AB267" width="9" height="9"/>
	<rect x="108" y="153" fill="#5AB267" width="9" height="9"/>
	<rect x="117" y="117" fill="#5AB267" width="9" height="9"/>
	<rect x="117" y="126" fill="#5AB267" width="9" height="9"/>
	<rect x="117" y="135" fill="#5AB267" width="9" height="9"/>
	<rect x="117" y="144" fill="#5AB267" width="9" height="9"/>
	<rect x="117" y="153" fill="#5AB267" width="9" height="9"/>
	<rect x="117" y="162" fill="#5AB267" width="9" height="9"/>
	<rect x="108" y="162" fill="#5AB267" width="9" height="9"/>
	<rect x="99" y="162" fill="#5AB267" width="9" height="9"/>
	<rect x="99" y="225" fill="#5AB267" width="9" height="9"/>
	<rect x="99" y="216" fill="#5AB267" width="9" height="9"/>
	<rect x="99" y="207" fill="#5AB267" width="9" height="9"/>
	<rect x="99" y="198" fill="#5AB267" width="9" height="9"/>
	<rect x="90" y="198" fill="#5AB267" width="9" height="9"/>
	<rect x="90" y="207" fill="#5AB267" width="9" height="9"/>
	<rect x="126" y="216" fill="#5AB267" width="9" height="9"/>
	<rect x="126" y="207" fill="#5AB267" width="9" height="9"/>
	<rect x="117" y="207" fill="#5AB267" width="9" height="9"/>
	<rect x="108" y="207" fill="#5AB267" width="9" height="9"/>
	<rect x="108" y="225" fill="#5AB267" width="9" height="9"/>
	<rect x="108" y="216" fill="#5AB267" width="9" height="9"/>
	<rect x="117" y="216" fill="#5AB267" width="9" height="9"/>
	<rect x="117" y="225" fill="#5AB267" width="9" height="9"/>
	<rect x="126" y="225" fill="#5AB267" width="9" height="9"/>
	<rect x="99" y="243" fill="#5AB267" width="9" height="9"/>
	<rect x="90" y="243" fill="#5AB267" width="9" height="9"/>
	<rect x="81" y="243" fill="#6696CF" width="9" height="9"/>
	<rect x="72" y="243" fill="#6696CF" width="9" height="9"/>
	<rect x="153" y="243" fill="#6696CF" width="9" height="9"/>
	<rect x="99" y="234" fill="#5AB267" width="9" height="9"/>
	<rect x="90" y="225" fill="#5AB267" width="9" height="9"/>
	<rect x="90" y="216" fill="#5AB267" width="9" height="9"/>
	<rect x="81" y="189" fill="#5AB267" width="9" height="9"/>
	<rect x="81" y="180" fill="#5AB267" width="9" height="9"/>
	<rect x="81" y="198" fill="#5AB267" width="9" height="9"/>
	<rect x="81" y="207" fill="#5AB267" width="9" height="9"/>
	<rect x="72" y="171" fill="#5AB267" width="9" height="9"/>
	<rect x="72" y="189" fill="#5AB267" width="9" height="9"/>
	<rect x="72" y="180" fill="#5AB267" width="9" height="9"/>
	<rect x="72" y="198" fill="#5AB267" width="9" height="9"/>
	<rect x="72" y="207" fill="#5AB267" width="9" height="9"/>
	<rect x="81" y="225" fill="#5AB267" width="9" height="9"/>
	<rect x="81" y="216" fill="#5AB267" width="9" height="9"/>
	<rect x="90" y="234" fill="#5AB267" width="9" height="9"/>
	<rect x="81" y="234" fill="#5AB267" width="9" height="9"/>
	<rect x="126" y="234" fill="#5AB267" width="9" height="9"/>
	<rect x="108" y="243" fill="#5AB267" width="9" height="9"/>
	<rect x="108" y="234" fill="#5AB267" width="9" height="9"/>
	<rect x="117" y="234" fill="#5AB267" width="9" height="9"/>
	<rect x="117" y="243" fill="#5AB267" width="9" height="9"/>
	<rect x="126" y="243" fill="#5AB267" width="9" height="9"/>
	<rect x="135" y="243" fill="#6696CF" width="9" height="9"/>
	<rect x="144" y="243" fill="#6696CF" width="9" height="9"/>
	<rect x="117" y="252" fill="#6696CF" width="9" height="9"/>
	<rect x="126" y="252" fill="#6696CF" width="9" height="9"/>
	<rect x="108" y="252" fill="#6696CF" width="9" height="9"/>
	<rect x="90" y="252" fill="#6696CF" width="9" height="9"/>
	<rect x="99" y="252" fill="#6696CF" width="9" height="9"/>
	<rect x="126" y="198" fill="#5AB267" width="9" height="9"/>
	<rect x="135" y="216" fill="#5AB267" width="9" height="9"/>
	<rect x="135" y="207" fill="#5AB267" width="9" height="9"/>
	<rect x="135" y="225" fill="#5AB267" width="9" height="9"/>
	<rect x="135" y="234" fill="#5AB267" width="9" height="9"/>
	<rect x="144" y="225" fill="#5AB267" width="9" height="9"/>
	<rect x="144" y="234" fill="#5AB267" width="9" height="9"/>
	<rect x="135" y="198" fill="#5AB267" width="9" height="9"/>
	<rect x="117" y="198" fill="#5AB267" width="9" height="9"/>
	<rect x="108" y="198" fill="#5AB267" width="9" height="9"/>
	<rect x="108" y="108" fill="#5AB267" width="9" height="9"/>
	<rect x="108" y="99" fill="#5AB267" width="9" height="9"/>
	<rect x="108" y="90" fill="#5AB267" width="9" height="9"/>
	<rect x="108" y="81" fill="#5AB267" width="9" height="9"/>
	<rect x="99" y="81" fill="#5AB267" width="9" height="9"/>
	<rect x="99" y="90" fill="#5AB267" width="9" height="9"/>
	<rect x="135" y="99" fill="#5AB267" width="9" height="9"/>
	<rect x="135" y="90" fill="#5AB267" width="9" height="9"/>
	<rect x="126" y="90" fill="#5AB267" width="9" height="9"/>
	<rect x="117" y="90" fill="#5AB267" width="9" height="9"/>
	<rect x="117" y="108" fill="#5AB267" width="9" height="9"/>
	<rect x="117" y="99" fill="#5AB267" width="9" height="9"/>
	<rect x="90" y="108" fill="#5AB267" width="9" height="9"/>
	<rect x="90" y="99" fill="#5AB267" width="9" height="9"/>
	<rect x="99" y="108" fill="#5AB267" width="9" height="9"/>
	<rect x="99" y="99" fill="#5AB267" width="9" height="9"/>
	<rect x="126" y="99" fill="#5AB267" width="9" height="9"/>
	<rect x="126" y="108" fill="#5AB267" width="9" height="9"/>
	<rect x="135" y="108" fill="#5AB267" width="9" height="9"/>
	<rect x="135" y="81" fill="#5AB267" width="9" height="9"/>
	<rect x="126" y="81" fill="#5AB267" width="9" height="9"/>
	<rect x="117" y="81" fill="#5AB267" width="9" height="9"/>
	<rect x="108" y="72" fill="#5AB267" width="9" height="9"/>
	<rect x="108" y="63" fill="#5AB267" width="9" height="9"/>
	<rect x="108" y="54" fill="#5AB267" width="9" height="9"/>
	<rect x="108" y="45" fill="#5AB267" width="9" height="9"/>
	<rect x="99" y="54" fill="#5AB267" width="9" height="9"/>
	<rect x="135" y="63" fill="#EEDD32" width="9" height="9"/>
	<rect x="144" y="63" fill="#EEDD32" width="9" height="9"/>
	<rect x="144" y="72" fill="#EEDD32" width="9" height="9"/>
	<rect x="135" y="54" fill="#5AB267" width="9" height="9"/>
	<rect x="126" y="54" fill="#5AB267" width="9" height="9"/>
	<rect x="117" y="54" fill="#5AB267" width="9" height="9"/>
	<rect x="117" y="72" fill="#5AB267" width="9" height="9"/>
	<rect x="117" y="63" fill="#5AB267" width="9" height="9"/>
	<rect x="99" y="72" fill="#5AB267" width="9" height="9"/>
	<rect x="99" y="63" fill="#5AB267" width="9" height="9"/>
	<rect x="126" y="63" fill="#5AB267" width="9" height="9"/>
	<rect x="126" y="72" fill="#5AB267" width="9" height="9"/>
	<rect x="153" y="99" fill="#5AB267" width="9" height="9"/>
	<rect x="144" y="99" fill="#5AB267" width="9" height="9"/>
	<rect x="144" y="108" fill="#5AB267" width="9" height="9"/>
	<rect x="153" y="90" fill="#5AB267" width="9" height="9"/>
	<rect x="153" y="81" fill="#5AB267" width="9" height="9"/>
	<rect x="144" y="81" fill="#5AB267" width="9" height="9"/>
	<rect x="144" y="90" fill="#5AB267" width="9" height="9"/>
	<rect x="180" y="99" fill="#5AB267" width="9" height="9"/>
	<rect x="180" y="90" fill="#5AB267" width="9" height="9"/>
	<rect x="189" y="99" fill="#5AB267" width="9" height="9"/>
	<rect x="189" y="90" fill="#5AB267" width="9" height="9"/>
	<rect x="171" y="90" fill="#5AB267" width="9" height="9"/>
	<rect x="162" y="90" fill="#5AB267" width="9" height="9"/>
	<rect x="162" y="99" fill="#5AB267" width="9" height="9"/>
	<rect x="171" y="99" fill="#5AB267" width="9" height="9"/>
	<rect x="180" y="81" fill="#5AB267" width="9" height="9"/>
	<rect x="171" y="81" fill="#5AB267" width="9" height="9"/>
	<rect x="162" y="81" fill="#5AB267" width="9" height="9"/>
	<rect x="153" y="72" fill="#5AB267" width="9" height="9"/>
	<rect x="162" y="72" fill="#5AB267" width="9" height="9"/>
	<rect x="153" y="63" fill="#5AB267" width="9" height="9"/>
	<rect x="162" y="63" fill="#5AB267" width="9" height="9"/>
	<rect x="153" y="54" fill="#5AB267" width="9" height="9"/>
	<rect x="144" y="54" fill="#5AB267" width="9" height="9"/>
	<rect x="135" y="45" fill="#5AB267" width="9" height="9"/>
	<rect x="126" y="45" fill="#5AB267" width="9" height="9"/>
	<rect x="117" y="45" fill="#5AB267" width="9" height="9"/>
	<rect x="180" y="198" fill="#5AB267" width="9" height="9"/>
	<rect x="180" y="189" fill="#5AB267" width="9" height="9"/>
	<rect x="180" y="180" fill="#5AB267" width="9" height="9"/>
	<rect x="180" y="171" fill="#5AB267" width="9" height="9"/>
	<rect x="171" y="171" fill="#5AB267" width="9" height="9"/>
	<rect x="171" y="180" fill="#5AB267" width="9" height="9"/>
	<rect x="171" y="189" fill="#5AB267" width="9" height="9"/>
	<rect x="171" y="198" fill="#5AB267" width="9" height="9"/>
	<rect x="207" y="189" fill="#5AB267" width="9" height="9"/>
	<rect x="207" y="180" fill="#5AB267" width="9" height="9"/>
	<rect x="198" y="180" fill="#5AB267" width="9" height="9"/>
	<rect x="189" y="180" fill="#5AB267" width="9" height="9"/>
	<rect x="189" y="198" fill="#5AB267" width="9" height="9"/>
	<rect x="189" y="189" fill="#5AB267" width="9" height="9"/>
	<rect x="198" y="189" fill="#5AB267" width="9" height="9"/>
	<rect x="198" y="198" fill="#5AB267" width="9" height="9"/>
	<rect x="180" y="207" fill="#5AB267" width="9" height="9"/>
	<rect x="189" y="207" fill="#5AB267" width="9" height="9"/>
	<rect x="198" y="207" fill="#5AB267" width="9" height="9"/>
	<rect x="207" y="207" fill="#6696CF" width="9" height="9"/>
	<rect x="216" y="207" fill="#6696CF" width="9" height="9"/>
	<rect x="234" y="189" fill="#6696CF" width="9" height="9"/>
	<rect x="270" y="189" fill="#6696CF" width="9" height="9"/>
	<rect x="243" y="189" fill="#6696CF" width="9" height="9"/>
	<rect x="252" y="189" fill="#6696CF" width="9" height="9"/>
	<rect x="261" y="189" fill="#6696CF" width="9" height="9"/>
	<rect x="180" y="216" fill="#6696CF" width="9" height="9"/>
	<rect x="189" y="216" fill="#6696CF" width="9" height="9"/>
	<rect x="198" y="216" fill="#6696CF" width="9" height="9"/>
	<rect x="261" y="99" fill="#6696CF" width="9" height="9"/>
	<rect x="234" y="99" fill="#6696CF" width="9" height="9"/>
	<rect x="243" y="99" fill="#6696CF" width="9" height="9"/>
	<rect x="252" y="99" fill="#6696CF" width="9" height="9"/>
	<rect x="252" y="99" fill="#6696CF" width="9" height="9"/>
	<rect x="225" y="99" fill="#6696CF" width="9" height="9"/>
	<rect x="234" y="99" fill="#6696CF" width="9" height="9"/>
	<rect x="243" y="99" fill="#6696CF" width="9" height="9"/>
	<rect x="162" y="207" fill="#6696CF" width="9" height="9"/>
	<rect x="171" y="207" fill="#6696CF" width="9" height="9"/>
	<rect x="207" y="198" fill="#5AB267" width="9" height="9"/>
	<rect x="207" y="171" fill="#5AB267" width="9" height="9"/>
	<rect x="198" y="171" fill="#5AB267" width="9" height="9"/>
	<rect x="189" y="171" fill="#5AB267" width="9" height="9"/>
	<rect x="207" y="162" fill="#5AB267" width="9" height="9"/>
	<rect x="207" y="153" fill="#5AB267" width="9" height="9"/>
	<rect x="207" y="144" fill="#5AB267" width="9" height="9"/>
	<rect x="207" y="135" fill="#5AB267" width="9" height="9"/>
	<rect x="198" y="135" fill="#5AB267" width="9" height="9"/>
	<rect x="198" y="144" fill="#5AB267" width="9" height="9"/>
	<rect x="189" y="144" fill="#5AB267" width="9" height="9"/>
	<rect x="234" y="153" fill="#5AB267" width="9" height="9"/>
	<rect x="234" y="144" fill="#5AB267" width="9" height="9"/>
	<rect x="225" y="144" fill="#5AB267" width="9" height="9"/>
	<rect x="216" y="144" fill="#5AB267" width="9" height="9"/>
	<rect x="216" y="162" fill="#5AB267" width="9" height="9"/>
	<rect x="216" y="153" fill="#5AB267" width="9" height="9"/>
	<rect x="225" y="153" fill="#5AB267" width="9" height="9"/>
	<rect x="225" y="162" fill="#5AB267" width="9" height="9"/>
	<rect x="234" y="162" fill="#5AB267" width="9" height="9"/>
	<rect x="261" y="153" fill="#5AB267" width="9" height="9"/>
	<rect x="252" y="144" fill="#5AB267" width="9" height="9"/>
	<rect x="243" y="144" fill="#5AB267" width="9" height="9"/>
	<rect x="234" y="126" fill="#5AB267" width="9" height="9"/>
	<rect x="243" y="135" fill="#5AB267" width="9" height="9"/>
	<rect x="225" y="126" fill="#5AB267" width="9" height="9"/>
	<rect x="216" y="126" fill="#5AB267" width="9" height="9"/>
	<rect x="243" y="162" fill="#5AB267" width="9" height="9"/>
	<rect x="243" y="153" fill="#5AB267" width="9" height="9"/>
	<rect x="252" y="153" fill="#5AB267" width="9" height="9"/>
	<rect x="252" y="162" fill="#5AB267" width="9" height="9"/>
	<rect x="261" y="162" fill="#5AB267" width="9" height="9"/>
	<rect x="261" y="171" fill="#5AB267" width="9" height="9"/>
	<rect x="243" y="180" fill="#5AB267" width="9" height="9"/>
	<rect x="243" y="171" fill="#5AB267" width="9" height="9"/>
	<rect x="252" y="171" fill="#5AB267" width="9" height="9"/>
	<rect x="252" y="180" fill="#5AB267" width="9" height="9"/>
	<rect x="261" y="180" fill="#5AB267" width="9" height="9"/>
	<rect x="243" y="72" fill="#5AB267" width="9" height="9"/>
	<rect x="234" y="63" fill="#5AB267" width="9" height="9"/>
	<rect x="234" y="72" fill="#5AB267" width="9" height="9"/>
	<rect x="225" y="63" fill="#5AB267" width="9" height="9"/>
	<rect x="225" y="72" fill="#5AB267" width="9" height="9"/>
	<rect x="216" y="72" fill="#5AB267" width="9" height="9"/>
	<rect x="252" y="81" fill="#5AB267" width="9" height="9"/>
	<rect x="243" y="81" fill="#5AB267" width="9" height="9"/>
	<rect x="234" y="81" fill="#5AB267" width="9" height="9"/>
	<rect x="243" y="90" fill="#5AB267" width="9" height="9"/>
	<rect x="234" y="90" fill="#5AB267" width="9" height="9"/>
	<rect x="252" y="90" fill="#5AB267" width="9" height="9"/>
	<rect x="198" y="153" fill="#5AB267" width="9" height="9"/>
	<rect x="180" y="162" fill="#5AB267" width="9" height="9"/>
	<rect x="180" y="153" fill="#5AB267" width="9" height="9"/>
	<rect x="189" y="153" fill="#5AB267" width="9" height="9"/>
	<rect x="189" y="162" fill="#5AB267" width="9" height="9"/>
	<rect x="198" y="162" fill="#5AB267" width="9" height="9"/>
	<rect x="234" y="135" fill="#5AB267" width="9" height="9"/>
	<rect x="225" y="135" fill="#5AB267" width="9" height="9"/>
	<rect x="216" y="135" fill="#5AB267" width="9" height="9"/>
</g>
</svg>
