<?xml version="1.0" encoding="utf-8"?>
<!-- Generator: Adobe Illustrator 15.1.0, SVG Export Plug-In . SVG Version: 6.00 Build 0)  -->
<!DOCTYPE svg PUBLIC "-//W3C//DTD SVG 1.1//EN" "http://www.w3.org/Graphics/SVG/1.1/DTD/svg11.dtd">
<svg version="1.1" id="Layer_1" xmlns="http://www.w3.org/2000/svg" xmlns:xlink="http://www.w3.org/1999/xlink" x="0px" y="0px"
	 width="432px" height="495px" viewBox="0 0 432 495" enable-background="new 0 0 432 495" xml:space="preserve">
<rect x="63" y="396" fill="#6696CF" width="9" height="9"/>
<rect x="54" y="396" fill="#6696CF" width="9" height="9"/>
<rect x="72" y="405" fill="#6696CF" width="9" height="9"/>
<rect x="108" y="405" fill="#6696CF" width="9" height="9"/>
<rect x="117" y="405" fill="#6696CF" width="9" height="9"/>
<rect x="99" y="396" fill="#6696CF" width="9" height="9"/>
<rect x="126" y="405" fill="#6696CF" width="9" height="9"/>
<rect x="81" y="405" fill="#6696CF" width="9" height="9"/>
<rect x="90" y="396" fill="#6696CF" width="9" height="9"/>
<rect x="153" y="405" fill="#6696CF" width="9" height="9"/>
<rect x="162" y="396" fill="#6696CF" width="9" height="9"/>
<rect x="144" y="405" fill="#6696CF" width="9" height="9"/>
<rect x="126" y="396" fill="#6696CF" width="9" height="9"/>
<rect x="135" y="396" fill="#6696CF" width="9" height="9"/>
<rect x="198" y="396" fill="#6696CF" width="9" height="9"/>
<rect x="207" y="396" fill="#6696CF" width="9" height="9"/>
<rect x="189" y="405" fill="#6696CF" width="9" height="9"/>
<rect x="171" y="396" fill="#6696CF" width="9" height="9"/>
<rect x="180" y="405" fill="#6696CF" width="9" height="9"/>
<rect x="243" y="396" fill="#6696CF" width="9" height="9"/>
<rect x="252" y="405" fill="#6696CF" width="9" height="9"/>
<rect x="234" y="396" fill="#6696CF" width="9" height="9"/>
<rect x="216" y="405" fill="#6696CF" width="9" height="9"/>
<rect x="225" y="405" fill="#6696CF" width="9" height="9"/>
<rect x="288" y="405" fill="#6696CF" width="9" height="9"/>
<rect x="297" y="405" fill="#6696CF" width="9" height="9"/>
<rect x="279" y="396" fill="#6696CF" width="9" height="9"/>
<rect x="261" y="405" fill="#6696CF" width="9" height="9"/>
<rect x="270" y="396" fill="#6696CF" width="9" height="9"/>
<rect x="333" y="405" fill="#6696CF" width="9" height="9"/>
<rect x="342" y="396" fill="#6696CF" width="9" height="9"/>
<rect x="324" y="405" fill="#6696CF" width="9" height="9"/>
<rect x="306" y="396" fill="#6696CF" width="9" height="9"/>
<rect x="315" y="396" fill="#6696CF" width="9" height="9"/>
<rect x="351" y="396" fill="#6696CF" width="9" height="9"/>
<rect x="162" y="378" width="9" height="9"/>
<rect x="162" y="369" width="9" height="9"/>
<rect x="162" y="360" width="9" height="9"/>
<rect x="162" y="351" width="9" height="9"/>
<rect x="153" y="351" width="9" height="9"/>
<rect x="153" y="360" width="9" height="9"/>
<rect x="189" y="369" width="9" height="9"/>
<rect x="189" y="360" width="9" height="9"/>
<rect x="180" y="360" width="9" height="9"/>
<rect x="171" y="360" width="9" height="9"/>
<rect x="171" y="378" width="9" height="9"/>
<rect x="171" y="369" width="9" height="9"/>
<rect x="180" y="369" width="9" height="9"/>
<rect x="180" y="378" width="9" height="9"/>
<rect x="189" y="378" width="9" height="9"/>
<rect x="162" y="387" width="9" height="9"/>
<rect x="153" y="378" width="9" height="9"/>
<rect x="153" y="369" width="9" height="9"/>
<rect x="144" y="360" width="9" height="9"/>
<rect x="135" y="360" width="9" height="9"/>
<rect x="144" y="378" width="9" height="9"/>
<rect x="144" y="369" width="9" height="9"/>
<rect x="153" y="387" width="9" height="9"/>
<rect x="144" y="387" width="9" height="9"/>
<rect x="153" y="396" width="9" height="9"/>
<rect x="144" y="396" width="9" height="9"/>
<rect x="135" y="378" width="9" height="9"/>
<rect x="135" y="369" width="9" height="9"/>
<rect x="135" y="387" width="9" height="9"/>
<rect x="126" y="378" width="9" height="9"/>
<rect x="125.999" y="369" width="9" height="9"/>
<rect x="117" y="378" width="9" height="9"/>
<rect x="125.999" y="387" width="9" height="9"/>
<rect x="117" y="387" width="9" height="9"/>
<rect x="108" y="387" width="9" height="9"/>
<rect x="117" y="396" width="9" height="9"/>
<rect x="108" y="396" width="9" height="9"/>
<rect x="189" y="387" width="9" height="9"/>
<rect x="171" y="387" width="9" height="9"/>
<rect x="180" y="387" width="9" height="9"/>
<rect x="189" y="396" width="9" height="9"/>
<rect x="180" y="396" width="9" height="9"/>
<rect x="189" y="351" width="9" height="9"/>
<rect x="198" y="369" width="9" height="9"/>
<rect x="207" y="369" width="9" height="9"/>
<rect x="207" y="360" width="9" height="9"/>
<rect x="198" y="360" width="9" height="9"/>
<rect x="198" y="378" width="9" height="9"/>
<rect x="198" y="387" width="9" height="9"/>
<rect x="207" y="378" width="9" height="9"/>
<rect x="207" y="387" width="9" height="9"/>
<rect x="216" y="369" width="9" height="9"/>
<rect x="225" y="369" width="9" height="9"/>
<rect x="216" y="378" width="9" height="9"/>
<rect x="216" y="387" width="9" height="9"/>
<rect x="225" y="378" width="9" height="9"/>
<rect x="225" y="387" width="9" height="9"/>
<rect x="216" y="396" width="9" height="9"/>
<rect x="225" y="396" width="9" height="9"/>
<rect x="234" y="378" width="9" height="9"/>
<rect x="234" y="387" width="9" height="9"/>
<rect x="243" y="378" width="9" height="9"/>
<rect x="243" y="387" width="9" height="9"/>
<rect x="252" y="378" width="9" height="9"/>
<rect x="252" y="387" width="9" height="9"/>
<rect x="261" y="378" width="9" height="9"/>
<rect x="261" y="387" width="9" height="9"/>
<rect x="252" y="396" width="9" height="9"/>
<rect x="261" y="396" width="9" height="9"/>
<rect x="270" y="378" width="9" height="9"/>
<rect x="270" y="387" width="9" height="9"/>
<rect x="279" y="378" width="9" height="9"/>
<rect x="279" y="387" width="9" height="9"/>
<rect x="288" y="378" width="9" height="9"/>
<rect x="288" y="387" width="9" height="9"/>
<rect x="297" y="378" width="9" height="9"/>
<rect x="297" y="387" width="9" height="9"/>
<rect x="288" y="396" width="9" height="9"/>
<rect x="297" y="396" width="9" height="9"/>
<rect x="306" y="378" width="9" height="9"/>
<rect x="306" y="387" width="9" height="9"/>
<rect x="315" y="378" width="9" height="9"/>
<rect x="315" y="387" width="9" height="9"/>
<rect x="306" y="360" width="9" height="9"/>
<rect x="306" y="369" width="9" height="9"/>
<rect x="315" y="360" width="9" height="9"/>
<rect x="315" y="369" width="9" height="9"/>
<rect x="306" y="342" width="9" height="9"/>
<rect x="306" y="351" width="9" height="9"/>
<rect x="315" y="351" width="9" height="9"/>
<rect x="306" y="324" width="9" height="9"/>
<rect x="306" y="333" width="9" height="9"/>
<rect x="306" y="306" width="9" height="9"/>
<rect x="306" y="315" width="9" height="9"/>
<rect x="306" y="288" width="9" height="9"/>
<rect x="306" y="297" width="9" height="9"/>
<rect x="297" y="360" width="9" height="9"/>
<rect x="297" y="369" width="9" height="9"/>
<rect x="297" y="342" width="9" height="9"/>
<rect x="297" y="351" width="9" height="9"/>
<rect x="297" y="324" width="9" height="9"/>
<rect x="297" y="333" width="9" height="9"/>
<rect x="288" y="360" width="9" height="9"/>
<rect x="279" y="360" width="9" height="9"/>
<rect x="279" y="369" width="9" height="9"/>
<rect x="270" y="369" width="9" height="9"/>
<rect x="288" y="369" width="9" height="9"/>
<rect x="288" y="342" width="9" height="9"/>
<rect x="288" y="351" width="9" height="9"/>
<rect x="288" y="324" width="9" height="9"/>
<rect x="288" y="333" width="9" height="9"/>
<rect x="297" y="306" width="9" height="9"/>
<rect x="297" y="315" width="9" height="9"/>
<rect x="297" y="288" width="9" height="9"/>
<rect x="297" y="297" width="9" height="9"/>
<rect x="306" y="270" width="9" height="9"/>
<rect x="306" y="279" width="9" height="9"/>
<rect x="315" y="279" width="9" height="9"/>
<rect x="297" y="279" width="9" height="9"/>
<rect x="324" y="261" width="9" height="9"/>
<rect x="315" y="261" width="9" height="9"/>
<rect x="306" y="261" width="9" height="9"/>
<rect x="315" y="270" width="9" height="9"/>
<rect x="342" y="270" width="9" height="9"/>
<rect x="333" y="270" width="9" height="9"/>
<rect x="324" y="270" width="9" height="9"/>
<rect x="324" y="252" width="9" height="9"/>
<rect x="315" y="252" width="9" height="9"/>
<rect x="342" y="261" width="9" height="9"/>
<rect x="333" y="261" width="9" height="9"/>
<rect x="333" y="252" width="9" height="9"/>
<rect x="180" y="351" width="9" height="9"/>
<rect x="171" y="351" width="9" height="9"/>
<rect x="63" y="198" fill="#6696CF" width="9" height="9"/>
<rect x="54" y="198" fill="#6696CF" width="9" height="9"/>
<rect x="72" y="207" fill="#6696CF" width="9" height="9"/>
<rect x="108" y="207" fill="#6696CF" width="9" height="9"/>
<rect x="117" y="207" fill="#6696CF" width="9" height="9"/>
<rect x="99" y="198" fill="#6696CF" width="9" height="9"/>
<rect x="126" y="207" fill="#6696CF" width="9" height="9"/>
<rect x="81" y="207" fill="#6696CF" width="9" height="9"/>
<rect x="90" y="198" fill="#6696CF" width="9" height="9"/>
<rect x="153" y="207" fill="#6696CF" width="9" height="9"/>
<rect x="162" y="198" fill="#6696CF" width="9" height="9"/>
<rect x="144" y="207" fill="#6696CF" width="9" height="9"/>
<rect x="126" y="198" fill="#6696CF" width="9" height="9"/>
<rect x="135" y="198" fill="#6696CF" width="9" height="9"/>
<rect x="198" y="198" fill="#6696CF" width="9" height="9"/>
<rect x="207" y="198" fill="#6696CF" width="9" height="9"/>
<rect x="189" y="207" fill="#6696CF" width="9" height="9"/>
<rect x="171" y="198" fill="#6696CF" width="9" height="9"/>
<rect x="180" y="207" fill="#6696CF" width="9" height="9"/>
<rect x="243" y="198" fill="#6696CF" width="9" height="9"/>
<rect x="252" y="207" fill="#6696CF" width="9" height="9"/>
<rect x="234" y="198" fill="#6696CF" width="9" height="9"/>
<rect x="216" y="207" fill="#6696CF" width="9" height="9"/>
<rect x="225" y="207" fill="#6696CF" width="9" height="9"/>
<rect x="288" y="207" fill="#6696CF" width="9" height="9"/>
<rect x="297" y="207" fill="#6696CF" width="9" height="9"/>
<rect x="279" y="198" fill="#6696CF" width="9" height="9"/>
<rect x="261" y="207" fill="#6696CF" width="9" height="9"/>
<rect x="270" y="198" fill="#6696CF" width="9" height="9"/>
<rect x="333" y="207" fill="#6696CF" width="9" height="9"/>
<rect x="342" y="198" fill="#6696CF" width="9" height="9"/>
<rect x="324" y="207" fill="#6696CF" width="9" height="9"/>
<rect x="306" y="198" fill="#6696CF" width="9" height="9"/>
<rect x="315" y="198" fill="#6696CF" width="9" height="9"/>
<rect x="351" y="198" fill="#6696CF" width="9" height="9"/>
<rect x="162" y="180" fill="#9BCB43" width="9" height="9"/>
<rect x="162" y="171" fill="#9BCB43" width="9" height="9"/>
<rect x="162" y="162" fill="#9BCB43" width="9" height="9"/>
<rect x="162" y="153" fill="#9BCB43" width="9" height="9"/>
<rect x="153" y="153" fill="#9BCB43" width="9" height="9"/>
<rect x="153" y="162" fill="#9BCB43" width="9" height="9"/>
<rect x="189" y="171" fill="#9BCB43" width="9" height="9"/>
<rect x="189" y="162" fill="#9BCB43" width="9" height="9"/>
<rect x="180" y="162" fill="#9BCB43" width="9" height="9"/>
<rect x="171" y="162" fill="#9BCB43" width="9" height="9"/>
<rect x="171" y="180" fill="#9BCB43" width="9" height="9"/>
<rect x="171" y="171" fill="#9BCB43" width="9" height="9"/>
<rect x="180" y="171" fill="#9BCB43" width="9" height="9"/>
<rect x="180" y="180" fill="#9BCB43" width="9" height="9"/>
<rect x="189" y="180" fill="#9BCB43" width="9" height="9"/>
<rect x="162" y="189" fill="#9BCB43" width="9" height="9"/>
<rect x="153" y="180" fill="#9BCB43" width="9" height="9"/>
<rect x="153" y="171" fill="#9BCB43" width="9" height="9"/>
<rect x="144" y="162" fill="#9BCB43" width="9" height="9"/>
<rect x="135" y="162" fill="#9BCB43" width="9" height="9"/>
<rect x="144" y="180" fill="#9BCB43" width="9" height="9"/>
<rect x="144" y="171" fill="#9BCB43" width="9" height="9"/>
<rect x="153" y="189" fill="#9BCB43" width="9" height="9"/>
<rect x="144" y="189" fill="#9BCB43" width="9" height="9"/>
<rect x="153" y="198" fill="#9BCB43" width="9" height="9"/>
<rect x="144" y="198" fill="#9BCB43" width="9" height="9"/>
<rect x="135" y="180" fill="#9BCB43" width="9" height="9"/>
<rect x="135" y="171" fill="#9BCB43" width="9" height="9"/>
<rect x="135" y="189" fill="#9BCB43" width="9" height="9"/>
<rect x="126" y="180" fill="#9BCB43" width="9" height="9"/>
<rect x="125.999" y="171" fill="#9BCB43" width="9" height="9"/>
<rect x="117" y="180" fill="#9BCB43" width="9" height="9"/>
<rect x="125.999" y="189" fill="#9BCB43" width="9" height="9"/>
<rect x="117" y="189" fill="#9BCB43" width="9" height="9"/>
<rect x="108" y="189" fill="#9BCB43" width="9" height="9"/>
<rect x="117" y="198" fill="#9BCB43" width="9" height="9"/>
<rect x="108" y="198" fill="#9BCB43" width="9" height="9"/>
<rect x="189" y="189" fill="#9BCB43" width="9" height="9"/>
<rect x="171" y="189" fill="#9BCB43" width="9" height="9"/>
<rect x="180" y="189" fill="#9BCB43" width="9" height="9"/>
<rect x="189" y="198" fill="#9BCB43" width="9" height="9"/>
<rect x="180" y="198" fill="#9BCB43" width="9" height="9"/>
<rect x="189" y="153" fill="#9BCB43" width="9" height="9"/>
<rect x="198" y="171" fill="#9BCB43" width="9" height="9"/>
<rect x="207" y="171" fill="#9BCB43" width="9" height="9"/>
<rect x="207" y="162" fill="#9BCB43" width="9" height="9"/>
<rect x="198" y="162" fill="#9BCB43" width="9" height="9"/>
<rect x="198" y="180" fill="#9BCB43" width="9" height="9"/>
<rect x="198" y="189" fill="#9BCB43" width="9" height="9"/>
<rect x="207" y="180" fill="#9BCB43" width="9" height="9"/>
<rect x="207" y="189" fill="#9BCB43" width="9" height="9"/>
<rect x="216" y="171" fill="#9BCB43" width="9" height="9"/>
<rect x="225" y="171" fill="#9BCB43" width="9" height="9"/>
<rect x="216" y="180" fill="#9BCB43" width="9" height="9"/>
<rect x="216" y="189" fill="#9BCB43" width="9" height="9"/>
<rect x="225" y="180" fill="#9BCB43" width="9" height="9"/>
<rect x="225" y="189" fill="#9BCB43" width="9" height="9"/>
<rect x="216" y="198" fill="#9BCB43" width="9" height="9"/>
<rect x="225" y="198" fill="#9BCB43" width="9" height="9"/>
<rect x="234" y="180" fill="#9BCB43" width="9" height="9"/>
<rect x="234" y="189" fill="#9BCB43" width="9" height="9"/>
<rect x="243" y="180" fill="#9BCB43" width="9" height="9"/>
<rect x="243" y="189" fill="#9BCB43" width="9" height="9"/>
<rect x="252" y="180" fill="#9BCB43" width="9" height="9"/>
<rect x="252" y="189" fill="#9BCB43" width="9" height="9"/>
<rect x="261" y="180" fill="#9BCB43" width="9" height="9"/>
<rect x="261" y="189" fill="#9BCB43" width="9" height="9"/>
<rect x="252" y="198" fill="#9BCB43" width="9" height="9"/>
<rect x="261" y="198" fill="#9BCB43" width="9" height="9"/>
<rect x="270" y="180" fill="#9BCB43" width="9" height="9"/>
<rect x="270" y="189" fill="#9BCB43" width="9" height="9"/>
<rect x="279" y="180" fill="#9BCB43" width="9" height="9"/>
<rect x="279" y="189" fill="#9BCB43" width="9" height="9"/>
<rect x="288" y="180" fill="#9BCB43" width="9" height="9"/>
<rect x="288" y="189" fill="#9BCB43" width="9" height="9"/>
<rect x="297" y="180" fill="#9BCB43" width="9" height="9"/>
<rect x="297" y="189" fill="#9BCB43" width="9" height="9"/>
<rect x="288" y="198" fill="#9BCB43" width="9" height="9"/>
<rect x="297" y="198" fill="#9BCB43" width="9" height="9"/>
<rect x="306" y="180" fill="#9BCB43" width="9" height="9"/>
<rect x="306" y="189" fill="#9BCB43" width="9" height="9"/>
<rect x="315" y="180" fill="#9BCB43" width="9" height="9"/>
<rect x="315" y="189" fill="#9BCB43" width="9" height="9"/>
<rect x="306" y="162" fill="#9BCB43" width="9" height="9"/>
<rect x="306" y="171" fill="#9BCB43" width="9" height="9"/>
<rect x="315" y="162" fill="#9BCB43" width="9" height="9"/>
<rect x="315" y="171" fill="#9BCB43" width="9" height="9"/>
<rect x="306" y="144" fill="#9BCB43" width="9" height="9"/>
<rect x="306" y="153" fill="#9BCB43" width="9" height="9"/>
<rect x="315" y="153" fill="#9BCB43" width="9" height="9"/>
<rect x="306" y="126" fill="#9BCB43" width="9" height="9"/>
<rect x="306" y="135" fill="#9BCB43" width="9" height="9"/>
<rect x="306" y="108" fill="#9BCB43" width="9" height="9"/>
<rect x="306" y="117" fill="#9BCB43" width="9" height="9"/>
<rect x="306" y="90" fill="#9BCB43" width="9" height="9"/>
<rect x="306" y="99" fill="#9BCB43" width="9" height="9"/>
<rect x="297" y="162" fill="#9BCB43" width="9" height="9"/>
<rect x="297" y="171" fill="#9BCB43" width="9" height="9"/>
<rect x="297" y="144" fill="#9BCB43" width="9" height="9"/>
<rect x="297" y="153" fill="#9BCB43" width="9" height="9"/>
<rect x="297" y="126" fill="#9BCB43" width="9" height="9"/>
<rect x="297" y="135" fill="#9BCB43" width="9" height="9"/>
<rect x="288" y="162" fill="#9BCB43" width="9" height="9"/>
<rect x="279" y="162" fill="#9BCB43" width="9" height="9"/>
<rect x="279" y="171" fill="#9BCB43" width="9" height="9"/>
<rect x="270" y="171" fill="#9BCB43" width="9" height="9"/>
<rect x="288" y="171" fill="#9BCB43" width="9" height="9"/>
<rect x="288" y="144" fill="#9BCB43" width="9" height="9"/>
<rect x="288" y="153" fill="#9BCB43" width="9" height="9"/>
<rect x="288" y="126" fill="#9BCB43" width="9" height="9"/>
<rect x="288" y="135" fill="#9BCB43" width="9" height="9"/>
<rect x="297" y="108" fill="#9BCB43" width="9" height="9"/>
<rect x="297" y="117" fill="#9BCB43" width="9" height="9"/>
<rect x="297" y="90" fill="#9BCB43" width="9" height="9"/>
<rect x="297" y="99" fill="#9BCB43" width="9" height="9"/>
<rect x="306" y="72" fill="#9BCB43" width="9" height="9"/>
<rect x="306" y="81" fill="#9BCB43" width="9" height="9"/>
<rect x="315" y="81" fill="#9BCB43" width="9" height="9"/>
<rect x="297" y="81" fill="#9BCB43" width="9" height="9"/>
<rect x="324" y="63" fill="#9BCB43" width="9" height="9"/>
<rect x="315" y="63" fill="#9BCB43" width="9" height="9"/>
<rect x="306" y="63" fill="#9BCB43" width="9" height="9"/>
<rect x="315" y="72" fill="#9BCB43" width="9" height="9"/>
<rect x="342" y="72" fill="#9BCB43" width="9" height="9"/>
<rect x="333" y="72" fill="#9BCB43" width="9" height="9"/>
<rect x="324" y="72" fill="#9BCB43" width="9" height="9"/>
<rect x="324" y="54" fill="#9BCB43" width="9" height="9"/>
<rect x="315" y="54" fill="#9BCB43" width="9" height="9"/>
<rect x="342" y="63" fill="#9BCB43" width="9" height="9"/>
<rect x="333" y="63" fill="#9BCB43" width="9" height="9"/>
<rect x="333" y="54" fill="#9BCB43" width="9" height="9"/>
<rect x="180" y="153" fill="#9BCB43" width="9" height="9"/>
<rect x="171" y="153" fill="#9BCB43" width="9" height="9"/>
</svg>
